<svg width="96" height="36" viewBox="0 0 96 36" fill="none" xmlns="http://www.w3.org/2000/svg">
<path d="M0 16.7938V0H17.2303C17.2302 2.20589 16.7843 4.39012 15.9182 6.42796C15.0521 8.46582 13.7829 10.3173 12.1828 11.8769C10.5828 13.4364 8.68335 14.6732 6.59301 15.5169C4.50266 16.3606 2.26235 16.7945 0 16.7938Z" fill="#242424"/>
<path d="M17.2303 36H0V19.2062C2.26235 19.2055 4.50266 19.6394 6.59301 20.4831C8.68335 21.3268 10.5828 22.5637 12.1828 24.1232C13.7829 25.6827 15.0521 27.5342 15.9182 29.572C16.7843 31.6099 17.2302 33.7942 17.2303 36Z" fill="#242424"/>
<path d="M54.1224 16.7938H36.8987C32.3359 16.7857 27.9628 15.0129 24.7393 11.8643C21.5157 8.71582 19.7051 4.44887 19.7046 0H36.9283C41.4912 0.00766921 45.8645 1.7804 49.0881 4.92903C52.3118 8.07766 54.1224 12.3449 54.1224 16.7938Z" fill="#242424"/>
<path d="M54.1224 19.2062C54.1224 23.6551 52.3118 27.9223 49.0881 31.0709C45.8645 34.2196 41.4912 35.9924 36.9283 36H19.7046C19.7051 31.5511 21.5157 27.2842 24.7393 24.1357C27.9628 20.9871 32.3359 19.2143 36.8987 19.2062H54.1224Z" fill="#242424"/>
<path d="M76.2945 19.2062V36C71.7266 36 67.3456 34.2306 64.1155 31.0812C60.8855 27.9317 59.0708 23.6601 59.0708 19.2062H76.2945Z" fill="#242424"/>
<path d="M96.0002 19.2062V36C93.7373 36.0006 91.4971 35.5667 89.4068 34.7231C87.3165 33.8794 85.417 32.6425 83.817 31.083C82.217 29.5235 80.9477 27.672 80.0816 25.6342C79.2156 23.5962 78.7697 21.412 78.7695 19.2062H96.0002Z" fill="#242424"/>
<path d="M96.0002 16.7938H78.7695V6.93116e-07C81.0318 -0.000633009 83.2722 0.433275 85.3625 1.27694C87.4529 2.12061 89.3523 3.35751 90.9523 4.917C92.5527 6.4765 93.8221 8.32804 94.6879 10.3658C95.5538 12.4038 95.9993 14.588 96.0002 16.7938Z" fill="#242424"/>
<path d="M76.2945 16.7938H59.0708V0C63.6389 0 68.0198 1.76935 71.2498 4.91881C74.4799 8.06827 76.2945 12.3399 76.2945 16.7938Z" fill="#242424"/>
</svg>
