<svg width="417" height="94" viewBox="0 0 417 94" fill="none" xmlns="http://www.w3.org/2000/svg">
<path d="M0 41.7673V0H42.853C42.8525 5.48618 41.7436 10.9185 39.5897 15.9868C37.4355 21.055 34.2789 25.6599 30.2995 29.5385C26.3202 33.4172 21.5961 36.4933 16.3972 38.5916C11.1984 40.6899 5.62662 41.7689 0 41.7673Z" fill="white"/>
<path d="M42.853 89.5343H0V47.767C5.62662 47.7654 11.1984 48.8444 16.3972 50.9427C21.5961 53.0411 26.3202 56.1174 30.2995 59.9958C34.2789 63.8745 37.4355 68.4793 39.5897 73.5475C41.7436 78.6159 42.8525 84.0482 42.853 89.5343Z" fill="white"/>
<path d="M134.606 41.7673H91.7696C80.4218 41.7472 69.5456 37.3381 61.5285 29.5073C53.5112 21.6768 49.008 11.0646 49.0068 0H91.8433C103.192 0.0190738 114.068 4.42798 122.086 12.2588C130.103 20.0897 134.606 30.7025 134.606 41.7673Z" fill="white"/>
<path d="M134.606 47.767C134.606 58.8318 130.103 69.4446 122.086 77.2754C114.068 85.1064 103.192 89.5153 91.8433 89.5343H49.0068C49.008 78.4697 53.5112 67.8576 61.5285 60.027C69.5456 52.1962 80.4218 47.7871 91.7696 47.767H134.606Z" fill="white"/>
<path d="M189.749 47.767V89.5343C178.388 89.5343 167.493 85.1338 159.459 77.301C151.426 69.4679 146.913 58.8443 146.913 47.767H189.749Z" fill="white"/>
<path d="M238.759 47.767V89.5343C233.131 89.5359 227.56 88.4567 222.361 86.3586C217.162 84.2602 212.438 81.1839 208.459 77.3055C204.479 73.4268 201.322 68.822 199.169 63.7538C197.015 58.6854 195.906 53.2531 195.905 47.767H238.759Z" fill="white"/>
<path d="M238.759 41.7673H195.905V1.72383e-06C201.532 -0.00157433 207.104 1.07758 212.302 3.17584C217.501 5.27409 222.225 8.35035 226.205 12.2289C230.185 16.1075 233.342 20.7124 235.495 25.7805C237.649 30.849 238.757 36.2813 238.759 41.7673Z" fill="white"/>
<path d="M189.749 41.7673H146.913V0C158.274 0 169.169 4.40049 177.203 12.2334C185.236 20.0663 189.749 30.6901 189.749 41.7673Z" fill="white"/>
<path d="M345.797 87.618V79.4754C345.797 78.5568 345.569 77.8411 345.114 77.328C344.659 76.8067 344.042 76.546 343.265 76.546C342.785 76.546 342.354 76.6577 341.974 76.8812C341.593 77.0963 341.291 77.419 341.068 77.8493C340.844 78.2714 340.732 78.7761 340.732 79.3637L339.404 78.5817C339.396 77.6549 339.603 76.8398 340.025 76.1364C340.455 75.4248 341.034 74.8703 341.763 74.4731C342.491 74.0759 343.302 73.8773 344.196 73.8773C345.677 73.8773 346.81 74.3242 347.597 75.2179C348.391 76.1033 348.788 77.2701 348.788 78.7182V87.618H345.797ZM329.673 87.618V74.2125H332.317V78.3707H332.689V87.618H329.673ZM337.753 87.618V79.5126C337.753 78.5775 337.526 77.8493 337.071 77.328C336.616 76.8067 335.995 76.546 335.209 76.546C334.448 76.546 333.835 76.8067 333.372 77.328C332.917 77.8493 332.689 78.5279 332.689 79.3637L331.349 78.47C331.349 77.6011 331.564 76.8191 331.994 76.124C332.424 75.4289 333.004 74.8827 333.732 74.4855C334.468 74.0801 335.292 73.8773 336.202 73.8773C337.203 73.8773 338.039 74.0925 338.709 74.5228C339.388 74.9448 339.893 75.5241 340.224 76.2605C340.563 76.9887 340.732 77.8121 340.732 78.7306V87.618H337.753Z" fill="white"/>
<path d="M321.222 87.9904C319.865 87.9904 318.673 87.6966 317.647 87.1091C316.621 86.5216 315.819 85.7065 315.239 84.6638C314.668 83.6212 314.383 82.4213 314.383 81.0642C314.383 79.5995 314.664 78.3293 315.227 77.2535C315.79 76.1695 316.572 75.3296 317.573 74.7338C318.574 74.138 319.733 73.8401 321.048 73.8401C322.439 73.8401 323.618 74.167 324.586 74.8207C325.562 75.4661 326.286 76.3805 326.758 77.5639C327.23 78.7472 327.408 80.1415 327.292 81.7469H324.325V80.6546C324.317 79.1982 324.06 78.1348 323.556 77.4646C323.051 76.7943 322.257 76.4591 321.172 76.4591C319.948 76.4591 319.038 76.8398 318.442 77.6011C317.846 78.3541 317.548 79.4588 317.548 80.9152C317.548 82.2723 317.846 83.3233 318.442 84.068C319.038 84.8128 319.906 85.1852 321.048 85.1852C321.785 85.1852 322.418 85.0238 322.947 84.7011C323.485 84.3701 323.899 83.8943 324.189 83.2736L327.143 84.1673C326.63 85.3755 325.835 86.3147 324.76 86.985C323.692 87.6553 322.513 87.9904 321.222 87.9904ZM316.605 81.7469V79.4878H325.827V81.7469H316.605Z" fill="white"/>
<path d="M312.924 87.618C312.038 87.7835 311.169 87.8539 310.317 87.829C309.473 87.8125 308.716 87.6594 308.046 87.3698C307.375 87.0719 306.866 86.6043 306.519 85.9672C306.213 85.3879 306.051 84.7962 306.035 84.1922C306.018 83.5881 306.01 82.9054 306.01 82.1441V70.4887H308.989V81.9703C308.989 82.5082 308.993 82.9799 309.001 83.3853C309.018 83.7908 309.105 84.1218 309.262 84.3784C309.56 84.8749 310.036 85.1521 310.69 85.21C311.343 85.2679 312.088 85.2348 312.924 85.1107V87.618ZM303.577 76.5584V74.2125H312.924V76.5584H303.577Z" fill="white"/>
<path d="M296.812 87.9904C295.157 87.9904 293.812 87.618 292.778 86.8733C291.743 86.1285 291.115 85.0817 290.891 83.7329L293.945 83.2612C294.102 83.9232 294.449 84.4445 294.987 84.8252C295.525 85.2058 296.204 85.3962 297.023 85.3962C297.743 85.3962 298.297 85.2555 298.686 84.9741C299.083 84.6845 299.282 84.2915 299.282 83.795C299.282 83.4888 299.208 83.2447 299.059 83.0626C298.918 82.8723 298.603 82.6902 298.115 82.5165C297.627 82.3427 296.878 82.1234 295.869 81.8586C294.743 81.5607 293.849 81.2421 293.187 80.9028C292.525 80.5553 292.05 80.1457 291.76 79.674C291.47 79.2023 291.326 78.6313 291.326 77.9611C291.326 77.1253 291.545 76.3971 291.983 75.7764C292.422 75.1558 293.034 74.68 293.82 74.349C294.607 74.0097 295.533 73.8401 296.601 73.8401C297.644 73.8401 298.566 74.0015 299.369 74.3242C300.18 74.6469 300.834 75.1062 301.33 75.702C301.827 76.2978 302.133 76.997 302.249 77.7997L299.195 78.3458C299.121 77.7749 298.86 77.3239 298.413 76.9929C297.975 76.6619 297.387 76.4757 296.651 76.4343C295.947 76.3929 295.38 76.5005 294.95 76.757C294.52 77.0053 294.305 77.357 294.305 77.8121C294.305 78.0686 294.391 78.2879 294.565 78.47C294.739 78.652 295.087 78.8341 295.608 79.0161C296.137 79.1982 296.924 79.4216 297.966 79.6864C299.034 79.9595 299.886 80.2739 300.523 80.6298C301.169 80.9773 301.632 81.3952 301.913 81.8834C302.203 82.3716 302.348 82.9633 302.348 83.6584C302.348 85.0072 301.856 86.0665 300.871 86.836C299.894 87.6056 298.541 87.9904 296.812 87.9904Z" fill="white"/>
<path d="M279.507 93.576L282.089 86.4885L282.138 88.5738L276.292 74.2125H279.408L283.553 84.8376H282.759L286.793 74.2125H289.784L282.312 93.576H279.507Z" fill="white"/>
<path d="M268.287 87.9904C266.98 87.9904 265.8 87.7628 264.749 87.3077C263.707 86.8526 262.846 86.203 262.168 85.3589C261.497 84.5066 261.071 83.497 260.889 82.3303L263.992 81.8586C264.257 82.9178 264.799 83.737 265.618 84.3163C266.446 84.8955 267.397 85.1851 268.473 85.1851C269.11 85.1851 269.71 85.0858 270.273 84.8872C270.836 84.6886 271.291 84.399 271.638 84.0184C271.994 83.6377 272.172 83.1702 272.172 82.6157C272.172 82.3675 272.131 82.1399 272.048 81.9331C271.965 81.7179 271.841 81.5276 271.676 81.3621C271.518 81.1966 271.312 81.0476 271.055 80.9152C270.807 80.7745 270.517 80.6546 270.186 80.5553L265.569 79.1899C265.171 79.074 264.741 78.9209 264.278 78.7306C263.823 78.532 263.388 78.2631 262.974 77.9238C262.569 77.5762 262.234 77.1377 261.969 76.6081C261.713 76.0702 261.584 75.4082 261.584 74.6221C261.584 73.4718 261.874 72.5078 262.453 71.7299C263.041 70.9438 263.827 70.3563 264.812 69.9674C265.805 69.5784 266.905 69.3881 268.113 69.3964C269.338 69.4047 270.43 69.6157 271.39 70.0294C272.35 70.4349 273.153 71.0266 273.798 71.8044C274.444 72.5823 274.899 73.5215 275.164 74.6221L271.949 75.1806C271.816 74.5517 271.56 74.018 271.179 73.5794C270.807 73.1326 270.348 72.7933 269.801 72.5616C269.263 72.3299 268.688 72.2058 268.076 72.1892C267.48 72.1809 266.926 72.2719 266.413 72.4623C265.908 72.6443 265.498 72.9091 265.184 73.2567C264.878 73.6042 264.725 74.0097 264.725 74.4731C264.725 74.9117 264.857 75.2716 265.122 75.553C265.387 75.8261 265.714 76.0454 266.102 76.2109C266.5 76.3681 266.901 76.5005 267.306 76.6081L270.509 77.5018C270.947 77.6176 271.44 77.7748 271.986 77.9734C272.532 78.172 273.058 78.4493 273.562 78.8051C274.067 79.1609 274.481 79.6285 274.804 80.2077C275.135 80.787 275.3 81.5234 275.3 82.4171C275.3 83.3439 275.106 84.159 274.717 84.8624C274.336 85.5575 273.819 86.1368 273.165 86.6002C272.511 87.0636 271.763 87.4111 270.918 87.6428C270.083 87.8745 269.206 87.9904 268.287 87.9904Z" fill="white"/>
<path d="M417 54.0311C416.115 54.1966 415.246 54.267 414.393 54.2421C413.549 54.2256 412.792 54.0725 412.122 53.7829C411.452 53.485 410.943 53.0174 410.595 52.3802C410.289 51.801 410.128 51.2093 410.111 50.6052C410.094 50.0012 410.086 49.3185 410.086 48.5572V36.9018H413.065V48.3834C413.065 48.9213 413.069 49.393 413.078 49.7984C413.094 50.2039 413.181 50.5349 413.338 50.7914C413.636 51.2879 414.112 51.5652 414.766 51.6231C415.419 51.681 416.164 51.6479 417 51.5238V54.0311ZM407.653 42.9715V40.6256H417V42.9715H407.653Z" fill="white"/>
<path d="M402.875 54.0311V47.5766C402.875 47.1546 402.846 46.687 402.788 46.174C402.73 45.6609 402.594 45.1686 402.379 44.6969C402.172 44.2169 401.857 43.8239 401.435 43.5177C401.022 43.2115 400.459 43.0584 399.747 43.0584C399.367 43.0584 398.99 43.1205 398.618 43.2446C398.245 43.3687 397.906 43.5839 397.6 43.8901C397.302 44.188 397.062 44.6017 396.88 45.1313C396.698 45.6527 396.607 46.3229 396.607 47.1422L394.832 46.385C394.832 45.243 395.051 44.2087 395.49 43.2819C395.937 42.3551 396.59 41.6186 397.451 41.0724C398.311 40.518 399.371 40.2408 400.628 40.2408C401.621 40.2408 402.441 40.4063 403.086 40.7373C403.732 41.0683 404.245 41.4903 404.625 42.0034C405.006 42.5164 405.287 43.0626 405.469 43.6418C405.651 44.2211 405.767 44.7714 405.817 45.2927C405.875 45.8057 405.904 46.2236 405.904 46.5464V54.0311H402.875ZM393.578 54.0311V40.6256H396.247V44.7838H396.607V54.0311H393.578Z" fill="white"/>
<path d="M385.127 54.4035C383.77 54.4035 382.579 54.1097 381.553 53.5222C380.526 52.9347 379.724 52.1196 379.145 51.0769C378.574 50.0343 378.288 48.8344 378.288 47.4773C378.288 46.0126 378.569 44.7424 379.132 43.6666C379.695 42.5826 380.477 41.7427 381.478 41.1469C382.479 40.5511 383.638 40.2532 384.954 40.2532C386.344 40.2532 387.523 40.58 388.491 41.2338C389.468 41.8792 390.192 42.7936 390.663 43.9769C391.135 45.1603 391.313 46.5546 391.197 48.16H388.231V47.0677C388.222 45.6113 387.966 44.5479 387.461 43.8776C386.956 43.2074 386.162 42.8722 385.078 42.8722C383.853 42.8722 382.943 43.2529 382.347 44.0142C381.751 44.7672 381.453 45.8719 381.453 47.3283C381.453 48.6854 381.751 49.7364 382.347 50.4811C382.943 51.2259 383.812 51.5982 384.954 51.5982C385.69 51.5982 386.323 51.4369 386.853 51.1142C387.391 50.7831 387.804 50.3073 388.094 49.6867L391.048 50.5804C390.535 51.7886 389.741 52.7278 388.665 53.3981C387.598 54.0683 386.418 54.4035 385.127 54.4035ZM380.51 48.16V45.9009H389.732V48.16H380.51Z" fill="white"/>
<path d="M373.022 54.0311V45.8885C373.022 44.9699 372.795 44.2541 372.34 43.7411C371.885 43.2198 371.268 42.9591 370.49 42.9591C370.01 42.9591 369.58 43.0708 369.199 43.2942C368.819 43.5094 368.517 43.8321 368.293 44.2624C368.07 44.6844 367.958 45.1892 367.958 45.7768L366.63 44.9948C366.622 44.068 366.828 43.2529 367.251 42.5495C367.681 41.8378 368.26 41.2834 368.988 40.8862C369.716 40.489 370.527 40.2904 371.421 40.2904C372.902 40.2904 374.036 40.7373 374.822 41.631C375.617 42.5164 376.014 43.6832 376.014 45.1313V54.0311H373.022ZM356.898 54.0311V40.6255H359.542V44.7837H359.915V54.0311H356.898ZM364.979 54.0311V45.9257C364.979 44.9906 364.751 44.2624 364.296 43.7411C363.841 43.2198 363.221 42.9591 362.434 42.9591C361.673 42.9591 361.061 43.2198 360.597 43.7411C360.142 44.2624 359.915 44.941 359.915 45.7768L358.574 44.883C358.574 44.0142 358.789 43.2322 359.22 42.5371C359.65 41.842 360.229 41.2958 360.957 40.8986C361.694 40.4931 362.517 40.2904 363.427 40.2904C364.429 40.2904 365.264 40.5056 365.935 40.9359C366.613 41.3579 367.118 41.9371 367.449 42.6736C367.788 43.4018 367.958 44.2252 367.958 45.1437V54.0311H364.979Z" fill="white"/>
<path d="M348.447 54.4035C347.09 54.4035 345.899 54.1097 344.872 53.5222C343.846 52.9347 343.044 52.1196 342.464 51.0769C341.893 50.0343 341.608 48.8344 341.608 47.4773C341.608 46.0126 341.889 44.7424 342.452 43.6666C343.015 42.5826 343.797 41.7427 344.798 41.1469C345.799 40.5511 346.958 40.2532 348.273 40.2532C349.664 40.2532 350.843 40.58 351.811 41.2338C352.787 41.8792 353.512 42.7936 353.983 43.9769C354.455 45.1603 354.633 46.5546 354.517 48.16H351.55V47.0677C351.542 45.6113 351.286 44.5479 350.781 43.8776C350.276 43.2074 349.482 42.8722 348.398 42.8722C347.173 42.8722 346.263 43.2529 345.667 44.0142C345.071 44.7672 344.773 45.8719 344.773 47.3283C344.773 48.6854 345.071 49.7364 345.667 50.4811C346.263 51.2259 347.131 51.5982 348.273 51.5982C349.01 51.5982 349.643 51.4369 350.173 51.1142C350.71 50.7831 351.124 50.3073 351.414 49.6867L354.368 50.5804C353.855 51.7886 353.061 52.7278 351.985 53.3981C350.917 54.0683 349.738 54.4035 348.447 54.4035ZM343.83 48.16V45.9009H353.052V48.16H343.83Z" fill="white"/>
<path d="M332.691 60.3615C331.946 60.3615 331.23 60.2456 330.543 60.0139C329.865 59.7822 329.252 59.4471 328.706 59.0085C328.16 58.5782 327.713 58.0569 327.366 57.4446L330.121 56.0792C330.378 56.5674 330.738 56.9274 331.201 57.1591C331.673 57.399 332.173 57.519 332.703 57.519C333.324 57.519 333.878 57.4073 334.366 57.1839C334.855 56.9687 335.231 56.646 335.496 56.2157C335.769 55.7937 335.897 55.2641 335.881 54.6269V50.8163H336.253V40.6255H338.872V54.6766C338.872 55.0158 338.855 55.3386 338.822 55.6447C338.798 55.9592 338.752 56.2654 338.686 56.5633C338.487 57.4321 338.107 58.1438 337.544 58.6982C336.981 59.2609 336.282 59.6788 335.446 59.9519C334.619 60.225 333.7 60.3615 332.691 60.3615ZM332.43 54.4035C331.197 54.4035 330.121 54.0932 329.203 53.4725C328.284 52.8519 327.572 52.0079 327.068 50.9404C326.563 49.8729 326.311 48.6689 326.311 47.3283C326.311 45.9712 326.563 44.7631 327.068 43.7039C327.581 42.6364 328.305 41.7965 329.24 41.1841C330.175 40.5635 331.276 40.2532 332.542 40.2532C333.816 40.2532 334.883 40.5635 335.744 41.1841C336.613 41.7965 337.271 42.6364 337.718 43.7039C338.165 44.7713 338.388 45.9795 338.388 47.3283C338.388 48.6606 338.165 49.8646 337.718 50.9404C337.271 52.0079 336.605 52.8519 335.719 53.4725C334.834 54.0932 333.737 54.4035 332.43 54.4035ZM332.889 51.7224C333.692 51.7224 334.337 51.5403 334.826 51.1762C335.322 50.8038 335.682 50.2866 335.905 49.6246C336.137 48.9626 336.253 48.1972 336.253 47.3283C336.253 46.4512 336.137 45.6857 335.905 45.032C335.682 44.37 335.33 43.857 334.85 43.4928C334.37 43.1205 333.75 42.9343 332.988 42.9343C332.186 42.9343 331.524 43.1329 331.002 43.5301C330.481 43.919 330.096 44.4486 329.848 45.1189C329.6 45.7809 329.476 46.5174 329.476 47.3283C329.476 48.1476 329.596 48.8923 329.836 49.5626C330.084 50.2246 330.46 50.7501 330.965 51.139C331.47 51.5279 332.111 51.7224 332.889 51.7224Z" fill="white"/>
<path d="M316.5 54.4035C315.532 54.4035 314.713 54.2214 314.042 53.8573C313.372 53.485 312.863 52.9926 312.516 52.3802C312.176 51.7679 312.007 51.0935 312.007 50.357C312.007 49.7115 312.114 49.1323 312.33 48.6192C312.545 48.0979 312.876 47.6511 313.323 47.2787C313.769 46.898 314.349 46.5877 315.06 46.3477C315.598 46.174 316.227 46.0167 316.947 45.8761C317.675 45.7354 318.461 45.6071 319.305 45.4913C320.158 45.3671 321.047 45.2347 321.974 45.0941L320.907 45.7023C320.915 44.7755 320.708 44.0928 320.286 43.6542C319.864 43.2156 319.152 42.9963 318.151 42.9963C317.547 42.9963 316.964 43.137 316.401 43.4184C315.838 43.6997 315.445 44.1838 315.222 44.8706L312.491 44.0142C312.822 42.8805 313.451 41.9702 314.378 41.2834C315.313 40.5966 316.571 40.2532 318.151 40.2532C319.343 40.2532 320.389 40.4476 321.291 40.8366C322.202 41.2255 322.876 41.8627 323.315 42.7481C323.555 43.2198 323.699 43.7039 323.749 44.2004C323.799 44.6886 323.824 45.2223 323.824 45.8016V54.0311H321.205V51.1266L321.639 51.5982C321.035 52.5664 320.327 53.2781 319.516 53.7332C318.714 54.1801 317.708 54.4035 316.5 54.4035ZM317.096 52.0203C317.775 52.0203 318.354 51.9003 318.834 51.6603C319.314 51.4203 319.694 51.1266 319.976 50.779C320.265 50.4315 320.46 50.1046 320.559 49.7984C320.716 49.4178 320.803 48.9833 320.82 48.4951C320.845 47.9986 320.857 47.5973 320.857 47.2911L321.776 47.5642C320.874 47.7048 320.1 47.829 319.454 47.9365C318.809 48.0441 318.254 48.1476 317.791 48.2469C317.328 48.3379 316.918 48.4413 316.562 48.5572C316.215 48.6813 315.921 48.8261 315.681 48.9916C315.441 49.1571 315.255 49.3474 315.122 49.5626C314.998 49.7777 314.936 50.0301 314.936 50.3197C314.936 50.6508 315.019 50.9445 315.184 51.201C315.35 51.4493 315.59 51.6479 315.904 51.7968C316.227 51.9458 316.624 52.0203 317.096 52.0203Z" fill="white"/>
<path d="M306.484 54.0311V47.5766C306.484 47.1546 306.455 46.687 306.397 46.174C306.339 45.6609 306.203 45.1686 305.988 44.6969C305.781 44.2169 305.466 43.8239 305.044 43.5177C304.63 43.2115 304.068 43.0584 303.356 43.0584C302.975 43.0584 302.599 43.1205 302.227 43.2446C301.854 43.3687 301.515 43.5839 301.209 43.8901C300.911 44.188 300.671 44.6017 300.489 45.1313C300.307 45.6527 300.216 46.3229 300.216 47.1422L298.441 46.385C298.441 45.243 298.66 44.2087 299.099 43.2819C299.545 42.3551 300.199 41.6186 301.06 41.0724C301.92 40.518 302.98 40.2408 304.237 40.2408C305.23 40.2408 306.05 40.4063 306.695 40.7373C307.34 41.0683 307.854 41.4903 308.234 42.0034C308.615 42.5164 308.896 43.0626 309.078 43.6418C309.26 44.2211 309.376 44.7714 309.426 45.2927C309.484 45.8057 309.513 46.2236 309.513 46.5464V54.0311H306.484ZM297.187 54.0311V40.6256H299.856V44.7838H300.216V54.0311H297.187Z" fill="white"/>
<path d="M286.657 54.4035C285.689 54.4035 284.87 54.2214 284.199 53.8573C283.529 53.485 283.02 52.9926 282.672 52.3802C282.333 51.7679 282.164 51.0935 282.164 50.357C282.164 49.7115 282.271 49.1323 282.486 48.6192C282.701 48.0979 283.032 47.6511 283.479 47.2787C283.926 46.898 284.505 46.5877 285.217 46.3477C285.755 46.174 286.384 46.0167 287.104 45.8761C287.832 45.7354 288.618 45.6071 289.462 45.4913C290.314 45.3671 291.204 45.2347 292.131 45.0941L291.063 45.7023C291.072 44.7755 290.865 44.0928 290.443 43.6542C290.021 43.2156 289.309 42.9963 288.308 42.9963C287.704 42.9963 287.12 43.137 286.558 43.4184C285.995 43.6997 285.602 44.1838 285.378 44.8706L282.648 44.0142C282.979 42.8805 283.608 41.9702 284.534 41.2834C285.469 40.5966 286.727 40.2532 288.308 40.2532C289.499 40.2532 290.546 40.4476 291.448 40.8366C292.358 41.2255 293.033 41.8627 293.471 42.7481C293.711 43.2198 293.856 43.7039 293.906 44.2004C293.955 44.6886 293.98 45.2223 293.98 45.8016V54.0311H291.361V51.1266L291.796 51.5982C291.192 52.5664 290.484 53.2781 289.673 53.7332C288.87 54.1801 287.865 54.4035 286.657 54.4035ZM287.253 52.0203C287.931 52.0203 288.511 51.9003 288.99 51.6603C289.47 51.4203 289.851 51.1266 290.132 50.779C290.422 50.4315 290.617 50.1046 290.716 49.7984C290.873 49.4178 290.96 48.9833 290.976 48.4951C291.001 47.9986 291.014 47.5973 291.014 47.2911L291.932 47.5642C291.03 47.7048 290.257 47.829 289.611 47.9365C288.966 48.0441 288.411 48.1476 287.948 48.2469C287.484 48.3379 287.075 48.4413 286.719 48.5572C286.371 48.6813 286.078 48.8261 285.838 48.9916C285.598 49.1571 285.412 49.3474 285.279 49.5626C285.155 49.7777 285.093 50.0301 285.093 50.3197C285.093 50.6508 285.176 50.9445 285.341 51.201C285.507 51.4493 285.747 51.6479 286.061 51.7968C286.384 51.9458 286.781 52.0203 287.253 52.0203Z" fill="white"/>
<path d="M261.671 54.0311V36.157H264.364L270.546 48.8178L276.727 36.157H279.421V54.0311H276.628V42.5743L271.142 54.0311H269.95L264.476 42.5743V54.0311H261.671Z" fill="white"/>
<path d="M367.02 20.8166C365.365 20.8166 364.021 20.4442 362.986 19.6994C361.952 18.9547 361.323 17.9079 361.1 16.5591L364.153 16.0874C364.31 16.7494 364.658 17.2707 365.196 17.6514C365.734 18.032 366.412 18.2223 367.231 18.2223C367.951 18.2223 368.506 18.0817 368.895 17.8003C369.292 17.5107 369.49 17.1176 369.49 16.6211C369.49 16.3149 369.416 16.0708 369.267 15.8888C369.126 15.6985 368.812 15.5164 368.324 15.3426C367.835 15.1689 367.087 14.9496 366.077 14.6848C364.952 14.3869 364.058 14.0683 363.396 13.729C362.734 13.3814 362.258 12.9718 361.968 12.5002C361.679 12.0285 361.534 11.4575 361.534 10.7872C361.534 9.95145 361.753 9.22324 362.192 8.60262C362.63 7.98199 363.243 7.50618 364.029 7.17517C364.815 6.8359 365.742 6.66626 366.809 6.66626C367.852 6.66626 368.775 6.82762 369.577 7.15035C370.388 7.47308 371.042 7.93234 371.539 8.52814C372.035 9.12394 372.341 9.82318 372.457 10.6259L369.404 11.172C369.329 10.601 369.068 10.15 368.622 9.81905C368.183 9.48805 367.596 9.30186 366.859 9.26048C366.156 9.21911 365.589 9.32668 365.159 9.58321C364.728 9.83146 364.513 10.1831 364.513 10.6383C364.513 10.8948 364.6 11.1141 364.774 11.2961C364.947 11.4782 365.295 11.6602 365.816 11.8423C366.346 12.0243 367.132 12.2478 368.175 12.5126C369.242 12.7856 370.095 13.1001 370.732 13.4559C371.377 13.8035 371.841 14.2214 372.122 14.7096C372.412 15.1978 372.556 15.7895 372.556 16.4846C372.556 17.8334 372.064 18.8926 371.079 19.6622C370.103 20.4318 368.75 20.8166 367.02 20.8166Z" fill="white"/>
<path d="M348.704 20.4442L348.729 2.57013H351.758V13.4932L356.661 7.03865H360.397L355.196 13.7414L360.844 20.4442H356.884L351.758 13.9897V20.4442H348.704Z" fill="white"/>
<path d="M342.461 20.4442V13.9897C342.461 13.5677 342.432 13.1001 342.374 12.5871C342.316 12.074 342.18 11.5817 341.965 11.11C341.758 10.63 341.443 10.237 341.021 9.93078C340.607 9.62461 340.045 9.47152 339.333 9.47152C338.952 9.47152 338.576 9.53358 338.204 9.65771C337.831 9.78183 337.492 9.99698 337.186 10.3032C336.888 10.6011 336.648 11.0148 336.466 11.5444C336.284 12.0657 336.193 12.736 336.193 13.5552L334.418 12.7981C334.418 11.6561 334.637 10.6217 335.076 9.69494C335.522 8.76814 336.176 8.03166 337.037 7.48551C337.897 6.93108 338.957 6.65387 340.214 6.65387C341.207 6.65387 342.027 6.81937 342.672 7.15037C343.318 7.48137 343.831 7.9034 344.211 8.41645C344.592 8.9295 344.873 9.47566 345.055 10.0549C345.237 10.6342 345.353 11.1845 345.403 11.7058C345.461 12.2188 345.49 12.6367 345.49 12.9594V20.4442H342.461ZM333.164 20.4442V7.03866H335.833V11.1969H336.193V20.4442H333.164Z" fill="white"/>
<path d="M326.479 5.003V2.25983H329.471V5.003H326.479ZM326.479 20.4442V7.03866H329.471V20.4442H326.479Z" fill="white"/>
<path d="M319.521 20.4442V2.19775H322.513V20.4442H319.521Z" fill="white"/>
<path d="M305.891 20.4442L305.915 2.57013H308.944V13.4932L313.847 7.03865H317.583L312.382 13.7414L318.03 20.4442H314.07L308.944 13.9897V20.4442H305.891Z" fill="white"/>
<path d="M297.457 20.8166C296.075 20.8166 294.896 20.5104 293.92 19.898C292.943 19.2774 292.194 18.4334 291.673 17.3659C291.16 16.2984 290.899 15.0902 290.891 13.7414C290.899 12.3678 291.168 11.1513 291.698 10.0921C292.236 9.02464 292.997 8.18887 293.982 7.58479C294.967 6.97244 296.137 6.66626 297.495 6.66626C299.017 6.66626 300.304 7.05105 301.355 7.82063C302.414 8.58193 303.105 9.62458 303.428 10.9486L300.449 11.7554C300.217 11.0355 299.832 10.4769 299.294 10.0797C298.757 9.67423 298.144 9.4715 297.457 9.4715C296.679 9.4715 296.038 9.65768 295.533 10.0301C295.029 10.3942 294.656 10.8989 294.416 11.5444C294.176 12.1898 294.056 12.9222 294.056 13.7414C294.056 15.0158 294.342 16.046 294.913 16.8321C295.484 17.6183 296.332 18.0113 297.457 18.0113C298.252 18.0113 298.877 17.8293 299.332 17.4652C299.795 17.1011 300.143 16.5756 300.374 15.8888L303.428 16.5715C303.014 17.9369 302.29 18.9878 301.256 19.7243C300.221 20.4525 298.955 20.8166 297.457 20.8166Z" fill="white"/>
<path d="M281.081 20.8166C280.113 20.8166 279.293 20.6345 278.623 20.2704C277.953 19.898 277.444 19.4057 277.096 18.7933C276.757 18.181 276.587 17.5066 276.587 16.7701C276.587 16.1246 276.695 15.5454 276.91 15.0323C277.125 14.511 277.456 14.0641 277.903 13.6918C278.35 13.3111 278.929 13.0008 279.641 12.7608C280.179 12.587 280.808 12.4298 281.528 12.2891C282.256 12.1485 283.042 12.0202 283.886 11.9044C284.738 11.7802 285.628 11.6478 286.555 11.5072L285.487 12.1154C285.495 11.1886 285.289 10.5059 284.867 10.0673C284.445 9.62872 283.733 9.40943 282.732 9.40943C282.128 9.40943 281.544 9.55011 280.981 9.83146C280.419 10.1128 280.026 10.5969 279.802 11.2837L277.071 10.4273C277.402 9.29358 278.031 8.38333 278.958 7.6965C279.893 7.00967 281.151 6.66626 282.732 6.66626C283.923 6.66626 284.97 6.86072 285.872 7.24965C286.782 7.63858 287.457 8.27575 287.895 9.16118C288.135 9.63286 288.28 10.1169 288.33 10.6135C288.379 11.1017 288.404 11.6354 288.404 12.2147V20.4442H285.785V17.5397L286.22 18.0113C285.615 18.9795 284.908 19.6912 284.097 20.1463C283.294 20.5931 282.289 20.8166 281.081 20.8166ZM281.677 18.4334C282.355 18.4334 282.934 18.3134 283.414 18.0734C283.894 17.8334 284.275 17.5397 284.556 17.1921C284.846 16.8446 285.04 16.5177 285.14 16.2115C285.297 15.8309 285.384 15.3964 285.4 14.9082C285.425 14.4117 285.438 14.0104 285.438 13.7042L286.356 13.9773C285.454 14.1179 284.68 14.2421 284.035 14.3496C283.389 14.4572 282.835 14.5606 282.372 14.6599C281.908 14.751 281.499 14.8544 281.143 14.9703C280.795 15.0944 280.501 15.2392 280.262 15.4047C280.022 15.5702 279.835 15.7605 279.703 15.9757C279.579 16.1908 279.517 16.4432 279.517 16.7328C279.517 17.0638 279.6 17.3576 279.765 17.6141C279.931 17.8624 280.17 18.061 280.485 18.2099C280.808 18.3589 281.205 18.4334 281.677 18.4334Z" fill="white"/>
<path d="M261.671 20.4442V2.57013H268.758C269.967 2.57013 270.955 2.81424 271.725 3.30247C272.503 3.78242 273.078 4.39891 273.45 5.15194C273.831 5.90497 274.021 6.68282 274.021 7.4855C274.021 8.47023 273.786 9.30601 273.314 9.99283C272.85 10.6797 272.217 11.1431 271.415 11.383V10.7624C272.54 11.0189 273.392 11.5527 273.972 12.3636C274.559 13.1746 274.853 14.0972 274.853 15.1316C274.853 16.1908 274.65 17.1176 274.245 17.912C273.839 18.7064 273.235 19.3271 272.433 19.7739C271.638 20.2208 270.653 20.4442 269.478 20.4442H261.671ZM264.7 17.6266H269.106C269.627 17.6266 270.095 17.5231 270.509 17.3162C270.922 17.1011 271.245 16.8032 271.477 16.4225C271.717 16.0336 271.837 15.5743 271.837 15.0447C271.837 14.5648 271.733 14.1345 271.526 13.7538C271.32 13.3732 271.018 13.0711 270.62 12.8477C270.223 12.616 269.747 12.5002 269.193 12.5002H264.7V17.6266ZM264.7 9.70734H268.721C269.152 9.70734 269.536 9.6246 269.876 9.4591C270.215 9.29359 270.484 9.04948 270.682 8.72675C270.881 8.40403 270.98 8.00683 270.98 7.53515C270.98 6.91452 270.782 6.39733 270.385 5.98358C269.987 5.56983 269.433 5.36295 268.721 5.36295H264.7V9.70734Z" fill="white"/>
</svg>
