<svg width="108" height="108" viewBox="0 0 108 108" fill="none" xmlns="http://www.w3.org/2000/svg">
<g clip-path="url(#clip0_1007_2)">
<path d="M66.6155 68.7165L64.8883 74.6286V92.9332H56.8877L54.2119 98.0195H65.2661C65.144 96.8484 65.2832 95.6555 65.689 94.5129L69.9749 82.4426V73.9924L66.6155 68.7165Z" fill="white"/>
<path d="M105.698 62.4337H102.014C102.014 60.6623 102.014 59.4987 102.014 57.7665C102.014 56.5916 101.062 55.639 99.8869 55.639H98.6289C98.7785 53.8002 97.5924 52.0661 95.745 51.5913C94.2769 51.2139 85.0186 48.8344 83.5908 48.4673L87.506 38.2134C88.6395 35.2443 87.1531 31.9165 84.1814 30.7819L75.2187 27.3141C73.501 26.6494 71.6557 26.4796 69.8442 26.8121C62.7322 28.1167 51.0435 30.2613 49.6931 30.5081C48.8002 30.6714 47.9938 31.1439 47.4146 31.8427L39.4582 41.4452V12.5232C39.4582 11.3929 38.7125 10.3986 37.6277 10.082L20.5122 5.08697H64.8886V23.8657L69.9747 23.2012V2.54391C69.9747 1.13949 68.8361 0.000845678 67.4317 0.000845678C67.0712 0.000845678 2.70931 -0.00484963 2.51271 0.0113926C1.16609 0.122346 0.177847 1.25424 0.177847 2.54391C0.177847 3.16786 0.165824 95.523 0.199785 95.7941C0.32909 96.8218 1.06357 97.6409 2.00857 97.917L36.203 107.896C37.8321 108.372 39.4584 107.145 39.4584 105.455V52.7871C40.0478 52.5566 40.5905 52.183 41.0227 51.6609L52.4646 37.8515C53.8574 37.5969 63.6483 35.806 65.2219 35.5183L56.6232 58.0384C56.6232 58.0384 56.9297 57.2638 51.1996 76.8789L44.531 89.5548V101.564C46.4938 102.043 48.596 101.147 49.5743 99.2872L59.3699 80.6671C59.5097 80.4016 59.6224 80.1225 59.7067 79.8344L65.1255 61.2849C65.5195 61.4353 65.3255 61.3613 66.3466 61.7511C67.7112 63.8942 74.4276 74.4428 75.7863 76.5771L69.0006 95.6888C68.1695 98.0294 69.3932 100.601 71.734 101.432C74.0619 102.258 76.6444 101.043 77.4769 98.6985L84.9971 77.5181C85.4491 76.2444 85.3141 74.7934 84.5526 73.5978L77.9532 63.2329C78.9149 60.7141 79.8523 58.259 80.8186 55.7282C84.4828 56.67 86.8951 57.2902 86.8951 57.2902L86.8396 62.4341H83.1562C82.6776 62.4341 82.2376 62.5942 81.8824 62.8606L87.5172 71.7105C88.8518 73.8066 89.1403 76.352 88.309 78.6938L87.3731 81.3301H105.698C106.873 81.3301 107.825 80.3777 107.825 79.2032V64.5612C107.825 63.3861 106.873 62.4337 105.698 62.4337ZM32.2102 66.8609C32.2102 68.2653 31.0715 69.4039 29.6671 69.4039C28.2627 69.4039 27.1241 68.2653 27.1241 66.8609V52.1805C27.1241 50.776 28.2627 49.6374 29.6671 49.6374C31.0715 49.6374 32.2102 50.776 32.2102 52.1805V66.8609ZM97.7601 62.4337H97.7599H91.0944V59.8938H97.7601V62.4337Z" fill="white"/>
<path d="M87.9427 10.6806C83.5457 9.00175 78.6203 11.2052 76.9415 15.6022C75.2478 20.0372 77.5112 24.9419 81.863 26.6034C86.2202 28.2673 91.173 26.1115 92.8643 21.6818C94.5429 17.2848 92.3397 12.3595 87.9427 10.6806Z" fill="white"/>
</g>
<defs>
<clipPath id="clip0_1007_2">
<rect width="108" height="108" fill="white"/>
</clipPath>
</defs>
</svg>
