<svg width="210" height="210" viewBox="0 0 210 210" fill="none" xmlns="http://www.w3.org/2000/svg">
<g clip-path="url(#clip0_1048_2)">
<path fill-rule="evenodd" clip-rule="evenodd" d="M103.493 176.554V187.019C103.493 195.412 99.3104 202.657 92.042 206.853C88.545 208.872 84.642 209.998 80.5954 210C76.5451 210.002 72.6432 208.874 69.1438 206.853L22.6091 179.986C15.3399 175.79 11.158 168.546 11.158 160.152V22.9023C11.158 10.2732 21.4316 0 34.0603 0H136.546C149.176 0 159.45 10.2724 159.45 22.9023V51.8343C159.45 55.9847 156.081 59.3545 151.93 59.3545C147.779 59.3545 144.412 55.9851 144.412 51.8343V22.9023C144.412 18.5657 140.883 15.0371 136.546 15.0371H46.7419L92.042 41.1957C99.3079 45.3916 103.493 52.6349 103.493 61.0255V161.515H136.546C140.883 161.515 144.412 157.988 144.412 153.652V128.289C144.412 124.136 147.776 120.769 151.93 120.769C156.082 120.769 159.45 124.137 159.45 128.289V153.652C159.45 166.281 149.176 176.554 136.546 176.554H103.493ZM173.172 95.7953L164.89 104.077C161.954 107.013 161.955 111.773 164.89 114.71C166.304 116.124 168.208 116.91 170.207 116.91C172.208 116.91 174.111 116.126 175.526 114.71L196.64 93.5919C199.576 90.656 199.576 85.8982 196.64 82.9623L175.526 61.8475C172.589 58.9107 167.829 58.912 164.891 61.8471C161.955 64.7805 161.956 69.5428 164.891 72.4771L173.172 80.7565H117.694C113.54 80.7565 110.175 84.123 110.175 88.2771C110.175 92.4312 113.54 95.7957 117.694 95.7957H173.172V95.7953Z" fill="white"/>
</g>
<defs>
<clipPath id="clip0_1048_2">
<rect width="210" height="210" fill="white"/>
</clipPath>
</defs>
</svg>
