<svg width="40" height="16" viewBox="0 0 40 16" fill="none" xmlns="http://www.w3.org/2000/svg">
<path d="M0 7.49744V0.500122H7.17919C7.17912 1.41923 6.99333 2.32931 6.63249 3.1784C6.2716 4.02749 5.74276 4.79894 5.0761 5.44873C4.40944 6.09853 3.618 6.61387 2.74704 6.9654C1.87608 7.31694 0.942632 7.4977 0 7.49744Z" fill="white"/>
<path d="M7.17919 15.4999H0V8.50256C0.942632 8.5023 1.87608 8.68306 2.74704 9.0346C3.618 9.38614 4.40944 9.90151 5.0761 10.5513C5.74276 11.2011 6.2716 11.9725 6.63249 12.8216C6.99333 13.6707 7.17912 14.5808 7.17919 15.4999Z" fill="white"/>
<path d="M22.5505 7.49744H15.374C13.4729 7.49407 11.6508 6.75541 10.3077 5.44351C8.96458 4.13166 8.21016 2.35379 8.20996 0.500122H15.3864C17.2876 0.503318 19.1098 1.24194 20.4529 2.55385C21.7961 3.86576 22.5505 5.64374 22.5505 7.49744Z" fill="white"/>
<path d="M22.5505 8.50256C22.5505 10.3563 21.7961 12.1342 20.4529 13.4461C19.1098 14.7581 17.2876 15.4967 15.3864 15.4999H8.20996C8.21016 13.6462 8.96458 11.8684 10.3077 10.5565C11.6508 9.2446 13.4729 8.50593 15.374 8.50256H22.5505Z" fill="white"/>
<path d="M31.7897 8.50256V15.4999C29.8864 15.4999 28.0611 14.7627 26.7152 13.4504C25.3694 12.1381 24.6133 10.3583 24.6133 8.50256H31.7897Z" fill="white"/>
<path d="M39.9997 8.50256V15.4999C39.0568 15.5001 38.1234 15.3193 37.2524 14.9678C36.3815 14.6163 35.5901 14.1009 34.9234 13.4512C34.2567 12.8014 33.7279 12.0299 33.367 11.1808C33.0062 10.3317 32.8204 9.42165 32.8203 8.50256H39.9997Z" fill="white"/>
<path d="M39.9997 7.49744H32.8203V0.500122C33.7629 0.499858 34.6964 0.68065 35.5673 1.03217C36.4383 1.38369 37.2297 1.89906 37.8964 2.54884C38.5632 3.19862 39.0921 3.97008 39.4529 4.81916C39.8136 5.66827 39.9993 6.57835 39.9997 7.49744Z" fill="white"/>
<path d="M31.7897 7.49744H24.6133V0.500122C26.5166 0.500122 28.342 1.23734 29.6878 2.54959C31.0337 3.86185 31.7897 5.64165 31.7897 7.49744Z" fill="white"/>
</svg>
